HIERARCHY
ROOT Hips
{
  OFFSET -35.4901 99.2528 17.4586
  CHANNELS 6 Xposition Yposition Zposition Zrotation Xrotation Yrotation
  JOINT LeftUpLeg
  {
    OFFSET 8.64259 1.95398 -2.38835
    CHANNELS 3 Zrotation Xrotation Yrotation
    JOINT LeftLeg
    {
      OFFSET 43.7702 0 0
      CHANNELS 3 Zrotation Xrotation Yrotation
      JOINT LeftFoot
      {
        OFFSET 40.6238 0 0
        CHANNELS 3 Zrotation Xrotation Yrotation
        JOINT LeftToeBase
        {
          OFFSET 12.7242 0 0
          CHANNELS 3 Zrotation Xrotation Yrotation
          End Site
          {
            OFFSET 0 0 0
          }
        }
      }
    }
  }
  JOINT RightUpLeg
  {
    OFFSET -8.2249 1.95398 -2.59336
    CHANNELS 3 Zrotation Xrotation Yrotation
    JOINT RightLeg
    {
      OFFSET 43.5653 0 0
      CHANNELS 3 Zrotation Xrotation Yrotation
      JOINT RightFoot
      {
        OFFSET 40.6238 0 0
        CHANNELS 3 Zrotation Xrotation Yrotation
        JOINT RightToeBase
        {
          OFFSET 12.7242 0 0
          CHANNELS 3 Zrotation Xrotation Yrotation
          End Site
          {
            OFFSET 0 0 0
          }
        }
      }
    }
  }
  JOINT Spine
  {
    OFFSET 0.165834 0.87714 6.61349
    CHANNELS 3 Zrotation Xrotation Yrotation
    JOINT Spine1
    {
      OFFSET 7.38963 1.71661e-005 0
      CHANNELS 3 Zrotation Xrotation Yrotation
      JOINT Spine2
      {
        OFFSET 11.9445 1.14441e-005 0
        CHANNELS 3 Zrotation Xrotation Yrotation
        JOINT Spine3
        {
          OFFSET 14.7254 4.19617e-005 0
          CHANNELS 3 Zrotation Xrotation Yrotation
          JOINT Spine4
          {
            OFFSET 10.9679 0 0
            CHANNELS 3 Zrotation Xrotation Yrotation
            JOINT RightShoulder
            {
              OFFSET 2.46616 -1.6653 3.69651
              CHANNELS 3 Zrotation Xrotation Yrotation
              JOINT RightArm
              {
                OFFSET 13.0012 0 0
                CHANNELS 3 Zrotation Xrotation Yrotation
                JOINT RightForeArm
                {
                  OFFSET 28.7848 1.52588e-005 0
                  CHANNELS 3 Zrotation Xrotation Yrotation
                  JOINT RightHand
                  {
                    OFFSET 26.5688 1.52588e-005 0
                    CHANNELS 3 Zrotation Xrotation Yrotation
                    End Site
                    {
                      OFFSET 0 0 0
                    }
                  }
                }
              }
            }
            JOINT LeftShoulder
            {
              OFFSET 2.38034 -1.29275 -3.7523
              CHANNELS 3 Zrotation Xrotation Yrotation
              JOINT LeftArm
              {
                OFFSET 16.3182 6.10351e-005 0
                CHANNELS 3 Zrotation Xrotation Yrotation
                JOINT LeftForeArm
                {
                  OFFSET 27.0901 0 0
                  CHANNELS 3 Zrotation Xrotation Yrotation
                  JOINT LeftHand
                  {
                    OFFSET 24.5451 1.52588e-005 0
                    CHANNELS 3 Zrotation Xrotation Yrotation
                    End Site
                    {
                      OFFSET 0 0 0
                    }
                  }
                }
              }
            }
            JOINT Neck
            {
              OFFSET 5.0226 -0.0266342 0
              CHANNELS 3 Zrotation Xrotation Yrotation
              JOINT Head
              {
                OFFSET 6.69364 2.86102e-005 0
                CHANNELS 3 Zrotation Xrotation Yrotation
                End Site
                {
                  OFFSET 0 0 0
                }
              }
            }
          }
        }
      }
    }
  }
}
MOTION
Frames:	7
Frame Time:	0.0416667
-150.819 98.7814 -144.293 -97.9071 40.0457 -83.9316 -171.622 2.32492 99.2867 -16.6716 17.6862 -0.0583967 66.7005 4.09 -0.824195 27.7906 -0.620267 1.12081 170.318 0.604131 86.3537 -18.2839 -13.6095 -1.82438 69.7941 -4.56552 -1.07276 21.4247 -1.74024 4.83516 0.326617 7.9327 -90.3505 11.0096 0.487876 -0.744053 -0.661468 0.454643 -0.764818 -23.1963 0.688928 -0.563036 -3.18363 0.688949 -0.563043 90.5178 -31.0475 -105.352 35.4866 -4.24581 -6.36018 -6.20389 -28.8552 -28.1054 -29.124 -0.0107586 -8.09358 -84.2543 -52.4078 87.6413 -29.1158 10.8691 -0.214045 3.02812 7.5668 -8.39749 -0.525687 -0.111632 -5.67834 10.0443 -1.16572 0.00664247 -1.709 -1.13395 1.81825 
-152.095 98.8718 -143.782 -98.4882 40.3183 -83.837 -171.893 0.690472 98.3677 -15.713 16.6769 -0.227874 67.399 4.40166 -0.948164 27.5179 -0.740194 1.34133 169.483 -0.399869 85.015 -17.3687 -14.8831 -1.92128 69.3629 -4.49047 -1.04353 22.2555 -1.64537 4.60429 0.32158 7.95782 -90.2768 10.9593 0.512154 -0.599254 -0.71169 0.485274 -0.621223 -23.247 0.668554 -0.417634 -3.23439 0.668556 -0.417636 89.9364 -31.2888 -106.399 36.2923 -5.58614 -5.48794 -1.56927 -24.6079 -21.7663 -24.7859 0.193646 -9.01323 -84.2008 -52.1603 87.6924 -26.7925 11.5273 -4.92689 4.09591 9.93879 -11.1914 3.8186 -0.178698 -6.0153 9.4839 -1.30371 0.147645 -2.04701 -1.30605 1.39045 
-152.993 98.9107 -143.434 -98.7634 40.5989 -83.6969 -172.09 0.0897932 97.8909 -15.8617 15.9561 -0.32272 67.9189 4.58535 -1.19097 26.2941 -0.245407 0.617279 169.226 -1.15939 84.4133 -16.476 -15.3435 -2.19974 69.029 -4.44031 -0.909001 22.4853 -1.59795 4.48965 0.310537 7.98549 -90.2541 10.9039 0.500629 -0.552638 -0.767063 0.475831 -0.574148 -23.3025 0.643577 -0.376629 -3.28984 0.643571 -0.376631 89.3227 -31.866 -107.369 36.7881 -5.56009 -4.63797 0.966947 -30.8289 -15.8812 -21.6012 0.135352 -10.3813 -84.0857 -52.4057 87.8889 -23.9547 12.8187 -9.85298 4.8029 9.27995 -15.0415 4.20358 -0.24112 -6.979 9.6097 -1.17476 0.733207 -2.53534 -1.31496 0.993271 
-153.662 98.9239 -143.157 -98.8561 40.7751 -83.6654 -172.249 -0.189366 97.4479 -16.1104 15.6849 -0.405079 68.2676 4.73007 -0.826243 26.228 -0.15838 0.483826 169.125 -1.47618 84.0101 -16.1158 -15.5372 -2.44958 68.7893 -4.3824 -0.846752 22.8709 -1.5463 4.35994 0.292243 7.99479 -90.1997 10.8852 0.489487 -0.443184 -0.785726 0.469531 -0.46431 -23.3213 0.600052 -0.27558 -3.3087 0.600063 -0.275586 89.065 -32.1251 -107.764 38.1409 -5.65106 -3.41478 2.84115 -32.4828 -12.8006 -19.2474 -0.13696 -9.47167 -84.0878 -51.8482 87.8245 -23.1069 11.5067 -14.059 6.59776 9.09461 -18.4817 5.20011 -0.323512 -7.88386 9.45162 -1.1017 0.740037 -2.23111 -1.24056 0.53654 
-154.204 98.9296 -142.884 -98.9973 41.0873 -83.3559 -172.307 -0.299681 97.2903 -16.5639 15.3394 -0.47516 68.6633 4.87006 -0.561102 26.1798 -0.0816815 0.364451 168.915 -1.89003 83.7575 -15.4485 -16.0989 -2.46579 68.4704 -4.36064 -0.772592 23.1772 -1.49097 4.22164 0.248623 7.96508 -90.1865 10.9443 0.408776 -0.409758 -0.726651 0.390325 -0.427353 -23.2621 0.513023 -0.267956 -3.24941 0.513003 -0.26797 89.2635 -32.5205 -107.235 38.8204 -6.02895 -1.85748 4.3691 -32.1974 -11.8979 -19.4759 -0.127429 -9.43241 -84.0439 -51.8626 87.8913 -22.552 9.65204 -16.1848 9.40883 10.1771 -23.4218 6.14397 -0.340718 -7.72922 8.61704 -0.631174 0.619498 -1.61061 -0.746189 0.835045 
-154.829 98.9102 -142.715 -99.0147 41.6973 -83.4882 -172.656 -0.624388 96.6736 -16.8126 14.1038 -0.507002 69.1045 5.02132 -0.754127 25.7291 -0.122063 0.466296 168.863 -1.8018 83.2712 -15.5919 -16.4081 -2.78312 68.5823 -4.42438 -0.366897 23.4376 -1.43546 4.08287 0.192154 7.96458 -90.168 10.9452 0.304678 -0.36318 -0.725774 0.288431 -0.376242 -23.261 0.399737 -0.254823 -3.24835 0.399764 -0.254814 89.2792 -32.9271 -107.053 39.0348 -5.65779 -0.624538 2.80796 -32.1049 -13.5211 -19.9182 -0.171825 -8.97155 -84.206 -51.5164 87.6123 -23.054 8.53023 -17.4077 11.3583 10.265 -27.3655 5.22252 -0.356154 -8.36695 9.02657 -0.378402 0.994671 -2.48179 -0.589187 0.736025 
-155.296 98.9024 -142.67 -99.1041 42.4179 -83.3048 -172.591 -0.804736 96.5841 -17.1481 13.3722 -0.683432 69.4753 5.16164 -0.792584 25.6009 0.0224547 0.247196 168.763 -1.84477 83.0557 -15.4731 -17.3204 -2.84779 68.372 -4.37878 -0.601978 23.9388 -1.48734 4.18834 0.124626 7.94518 -90.1351 10.9838 0.185576 -0.28657 -0.687179 0.172778 -0.294465 -23.2223 0.263116 -0.217555 -3.20964 0.263128 -0.217549 89.3369 -32.8042 -106.99 39.5408 -6.17891 0.21344 1.8683 -29.8675 -15.0924 -21.4578 0.0854393 -9.94041 -84.2044 -51.1919 87.5779 -23.1107 8.14237 -17.5237 12.9958 11.0781 -29.9986 4.7293 -0.382272 -9.07289 9.01561 -0.00963113 0.659661 -2.68158 -0.159514 1.20511 
